<svg xmlns="http://www.w3.org/2000/svg" version="1.1" xmlns:xlink="http://www.w3.org/1999/xlink" width="1500" height="1500" viewBox="0 0 1500 1500"><rect width="1500" height="1500" x="0" y="0" id="background" stroke="transparent" fill="#1d1d1d"></rect><svg xml:space="preserve" width="1000" height="1000" data-version="2" data-id="lg_2vubXB0fCpMKVNgTso" viewBox="0 0 561 137" x="250" y="250"><rect width="100%" height="100%" fill="transparent"></rect><rect width="100" height="100" x="-50" y="-50" fill="#0ad889" rx="10" ry="10" transform="translate(72.69 68.5)scale(1.3428)"></rect><path fill="#0ad889" d="M183.935 20.539q-6.78 0-11.24 2.62-4.47 2.61-6.47 6.62l2.15-15.4h73l2.16 15.4q-2.01-4.01-6.47-6.62-4.47-2.62-11.24-2.62h-15.4v85.47q0 6.16 1.54 9.39 1.54 3.24 3.38 4.31 1.85 1.08 1.85.62h-24.48q0 .46 1.84-.62 1.85-1.07 3.32-4.23 1.46-3.16 1.46-9.47v-85.47z"></path><rect width="77.31" height="106.24" x="-38.66" y="-53.12" fill="none" rx="0" ry="0" transform="translate(205.38 68)"></rect><path fill="#0ad889" d="M325.155 120.329q2.77-.46 2.77-2.77 0-2.77-2.31-6.24-2.31-3.46-2.62-3.93l-21.56-33.26-24.18 32.34q-2.31 3.08-3.62 5.47-1.31 2.38-1.31 4.39 0 3.38 4.93 4h-23.1q0 .31 1.85-.77t5.31-4.39q3.47-3.31 8.4-9.93l28.02-37.12-24.79-38.34q-4.31-6.62-7.7-10.01-3.39-3.39-5.54-4.54-2.16-1.16-2.16-.85h25.72q-2.93.61-2.93 2.92t3.39 7.55l21.41 33.26 22.33-29.56q4.77-6.32 4.77-10.17 0-3.54-4.62-4h22.95q0-.16-1.93.69-1.92.85-4.93 3.54-3 2.7-6.85 7.93l-28.03 37.43 24.8 38.5q4.92 7.7 8.77 11.62 3.85 3.93 6.16 5.24t2.31 1z"></path><rect width="96.71" height="106.3" x="-48.35" y="-53.15" fill="none" rx="0" ry="0" transform="translate(303.01 67.86)"></rect><path fill="#0ad889" d="M376.745 20.539q-6.78 0-11.25 2.62-4.46 2.61-6.46 6.62l2.15-15.4h73l2.15 15.4q-2-4.01-6.46-6.62-4.47-2.62-11.25-2.62h-15.4v85.47q0 6.16 1.54 9.39 1.54 3.24 3.39 4.31 1.85 1.08 1.85.62h-24.49q0 .46 1.85-.62 1.85-1.07 3.31-4.23 1.47-3.16 1.47-9.47v-85.47z"></path><rect width="77.3" height="106.24" x="-38.65" y="-53.12" fill="none" rx="0" ry="0" transform="translate(398.19 68)"></rect><path fill="#0ad889" d="M458.665 28.699q0-6.16-1.46-9.32-1.46-3.15-3.31-4.23-1.85-1.08-1.85-.77h24.49q0-.31-1.85.77t-3.39 4.23q-1.54 3.16-1.54 9.32v85.47h25.26q6.93 0 11.93-2.85 5.01-2.85 7.16-7.31l-2.77 16.32h-59.29q0 .46 1.85-.69 1.85-1.16 3.31-4.62 1.46-3.47 1.46-10.09z"></path><rect width="62.06" height="106.42" x="-31.03" y="-53.21" fill="none" rx="0" ry="0" transform="translate(483.57 67.9)"></rect><path fill="#0ad889" d="M529.815 120.329q0 .46 1.85-.69 1.85-1.16 3.39-4.31 1.54-3.16 1.54-9.32v-77.31q0-6.16-1.46-9.32-1.47-3.15-3.32-4.23-1.84-1.08-1.84-.77h24.48q0-.31-1.85.77-1.84 1.08-3.38 4.23-1.54 3.16-1.54 9.32v77.31q0 6.16 1.54 9.32 1.54 3.15 3.38 4.23 1.85 1.08 1.85.77z"></path><rect width="24.64" height="106.42" x="-12.32" y="-53.21" fill="none" rx="0" ry="0" transform="translate(542.63 67.9)"></rect><path fill="#fff" d="M62.115 94.339q0-2 .87-4.21.87-2.22 1.57-3.78.61-1.22 1.91-3.78 1.3-2.57 2.95-5.78 1.66-3.22 3.52-6.78 1.87-3.57 3.52-6.78 1.66-3.22 3-5.78 1.35-2.57 1.96-3.78.09-.09.39-.61.3-.52.69-1.04.4-.53.74-1 .35-.48.44-.66.09-.17-.09-.34-.17-.18-.17-.35-3.74.43-7.78 1.13-4.04.69-8 1.61-3.95.91-7.6 2.08-3.65 1.18-6.61 2.65-.95 0-1.74-.34-.78-.35-.78-1.4v-.26q0-.08.09-.26.17-.43.56-1.34.39-.92.57-1l7.91-3.39 52.93-13.47q.95 2.43-.13 3.86-1.09 1.44-3.44 2.35-2.34.91-5.43 1.56-3.08.66-6.17 1.57-3.08.91-5.69 2.43-2.61 1.52-3.91 4.04-5.65 11.22-11.61 22.34-5.95 11.13-10.9 22.69-.09 0-.31.04-.21.04-.3.04-1.13 0-2.04-.52-.92-.52-.92-1.74" paint-order="stroke"></path><rect width="62.76" height="60.92" x="-31.38" y="-30.46" fill="none" rx="0" ry="0" transform="translate(82.78 66.64)"></rect></svg></svg>